<mxfile host="app.diagrams.net" modified="2023-01-01T17:53:50.441Z" agent="5.0 (X11; Linux x86_64) AppleWebKit/537.36 (KHTML, like Gecko) Chrome/107.0.0.0 Safari/537.36" etag="-v0U9AVIE3DDvdDTcC11" version="20.7.4" type="github">
  <diagram id="C5RBs43oDa-KdzZeNtuy" name="Page-1">
    <mxGraphModel dx="2684" dy="1028" grid="1" gridSize="10" guides="1" tooltips="1" connect="1" arrows="1" fold="1" page="1" pageScale="1" pageWidth="827" pageHeight="1169" math="0" shadow="0">
      <root>
        <mxCell id="WIyWlLk6GJQsqaUBKTNV-0" />
        <mxCell id="WIyWlLk6GJQsqaUBKTNV-1" parent="WIyWlLk6GJQsqaUBKTNV-0" />
        <UserObject label="" lucidchartObjectId="B0TjeojzzhyD" id="-EuLFVU4yD4jIDWXe8yd-0">
          <mxCell style="html=1;jettySize=18;whiteSpace=wrap;fontSize=13;strokeOpacity=100;strokeWidth=1.5;rounded=1;arcSize=12;edgeStyle=orthogonalEdgeStyle;startArrow=none;endArrow=block;endFill=1;entryX=-0.005;entryY=0.5;entryPerimeter=0;fontStyle=0;align=center;" parent="WIyWlLk6GJQsqaUBKTNV-1" target="-EuLFVU4yD4jIDWXe8yd-1" edge="1">
            <mxGeometry width="100" height="100" relative="1" as="geometry">
              <Array as="points" />
              <mxPoint x="719" y="165" as="sourcePoint" />
            </mxGeometry>
          </mxCell>
        </UserObject>
        <mxCell id="-EuLFVU4yD4jIDWXe8yd-1" value="Free_listint_safe&#xa;Param:&#xa;       Head node pointer" style="group;spacingLeft=8;align=center;spacing=0;strokeColor=none;whiteSpace=wrap;fontSize=16.7;fontColor=default;fontStyle=0;strokeOpacity=100;rounded=1;absoluteArcSize=1;arcSize=9;strokeWidth=2.3;verticalAlign=middle;html=1;" parent="WIyWlLk6GJQsqaUBKTNV-1" vertex="1">
          <mxGeometry x="840" y="45" width="225" height="75" as="geometry" />
        </mxCell>
        <mxCell id="-EuLFVU4yD4jIDWXe8yd-2" value="" style="shape=partialRectangle;right=0;fillColor=none;whiteSpace=wrap;fontSize=16.7;fontColor=default;fontStyle=0;strokeWidth=2.3;align=center;" parent="-EuLFVU4yD4jIDWXe8yd-1" vertex="1">
          <mxGeometry width="8" height="75" relative="1" as="geometry" />
        </mxCell>
        <UserObject label="" lucidchartObjectId="d2Tjtz0A~HVq" id="-EuLFVU4yD4jIDWXe8yd-3">
          <mxCell style="html=1;jettySize=18;whiteSpace=wrap;fontSize=13;strokeOpacity=100;strokeWidth=1.5;rounded=1;arcSize=12;edgeStyle=orthogonalEdgeStyle;startArrow=none;endArrow=block;endFill=1;exitX=0.5;exitY=1.012;exitPerimeter=0;entryX=0.5;entryY=-0.012;entryPerimeter=0;fontStyle=0;align=center;" parent="WIyWlLk6GJQsqaUBKTNV-1" source="-EuLFVU4yD4jIDWXe8yd-25" target="-EuLFVU4yD4jIDWXe8yd-4" edge="1">
            <mxGeometry width="100" height="100" relative="1" as="geometry">
              <Array as="points" />
            </mxGeometry>
          </mxCell>
        </UserObject>
        <UserObject label="Node pointer :&#xa;       t_node,&#xa;      n_node." lucidchartObjectId="n3Tj_km~~GY7" id="-EuLFVU4yD4jIDWXe8yd-4">
          <mxCell style="html=1;overflow=block;blockSpacing=1;whiteSpace=wrap;fontSize=16.7;fontColor=default;fontStyle=0;spacing=9;strokeOpacity=100;rounded=1;absoluteArcSize=1;arcSize=9;strokeWidth=2.3;align=center;" parent="WIyWlLk6GJQsqaUBKTNV-1" vertex="1">
            <mxGeometry x="600" y="285" width="120" height="85" as="geometry" />
          </mxCell>
        </UserObject>
        <mxCell id="-EuLFVU4yD4jIDWXe8yd-5" value="Tracking node pointer, &#xa;Next node pointer " style="group;spacingLeft=8;align=center;spacing=0;strokeColor=none;whiteSpace=wrap;fontSize=16.7;fontColor=default;fontStyle=0;strokeOpacity=100;rounded=1;absoluteArcSize=1;arcSize=9;strokeWidth=2.3;verticalAlign=middle;html=1;" parent="WIyWlLk6GJQsqaUBKTNV-1" vertex="1">
          <mxGeometry x="795" y="285" width="180" height="90" as="geometry" />
        </mxCell>
        <mxCell id="-EuLFVU4yD4jIDWXe8yd-6" value="" style="shape=partialRectangle;right=0;fillColor=none;whiteSpace=wrap;fontSize=16.7;fontColor=default;fontStyle=0;strokeWidth=2.3;align=center;" parent="-EuLFVU4yD4jIDWXe8yd-5" vertex="1">
          <mxGeometry width="8" height="90" relative="1" as="geometry" />
        </mxCell>
        <UserObject label="" lucidchartObjectId="N6TjMhdxIxI5" id="-EuLFVU4yD4jIDWXe8yd-7">
          <mxCell style="html=1;jettySize=18;whiteSpace=wrap;fontSize=13;strokeOpacity=100;strokeWidth=1.5;rounded=1;arcSize=12;edgeStyle=orthogonalEdgeStyle;startArrow=none;endArrow=block;endFill=1;exitX=-0.006;exitY=0.5;exitPerimeter=0;entryX=1.009;entryY=0.5;entryPerimeter=0;fontStyle=0;align=center;" parent="WIyWlLk6GJQsqaUBKTNV-1" source="-EuLFVU4yD4jIDWXe8yd-5" target="-EuLFVU4yD4jIDWXe8yd-4" edge="1">
            <mxGeometry width="100" height="100" relative="1" as="geometry">
              <Array as="points" />
            </mxGeometry>
          </mxCell>
        </UserObject>
        <UserObject label="" lucidchartObjectId="97TjU-4n.Omw" id="-EuLFVU4yD4jIDWXe8yd-8">
          <mxCell style="html=1;jettySize=18;whiteSpace=wrap;fontSize=13;strokeOpacity=100;strokeWidth=1.5;rounded=1;arcSize=12;edgeStyle=orthogonalEdgeStyle;startArrow=none;endArrow=block;endFill=1;exitX=0.5;exitY=1.012;exitPerimeter=0;entryX=0.5;entryY=0.001;entryPerimeter=0;fontStyle=0;align=center;" parent="WIyWlLk6GJQsqaUBKTNV-1" source="-EuLFVU4yD4jIDWXe8yd-4" target="-EuLFVU4yD4jIDWXe8yd-9" edge="1">
            <mxGeometry width="100" height="100" relative="1" as="geometry">
              <Array as="points">
                <mxPoint x="660" y="430" />
                <mxPoint x="660" y="430" />
              </Array>
            </mxGeometry>
          </mxCell>
        </UserObject>
        <UserObject label="Head == NULL" lucidchartObjectId=".7TjQWZjz_UL" id="-EuLFVU4yD4jIDWXe8yd-9">
          <mxCell style="html=1;overflow=block;blockSpacing=1;whiteSpace=wrap;rhombus;fontSize=16.7;fontColor=default;fontStyle=0;spacing=3.8;strokeOpacity=100;rounded=1;absoluteArcSize=1;arcSize=9;strokeWidth=2.3;align=center;" parent="WIyWlLk6GJQsqaUBKTNV-1" vertex="1">
            <mxGeometry x="585" y="480" width="150" height="90" as="geometry" />
          </mxCell>
        </UserObject>
        <UserObject label="" lucidchartObjectId="c9TjnEwzUFvM" id="-EuLFVU4yD4jIDWXe8yd-10">
          <mxCell style="html=1;jettySize=18;whiteSpace=wrap;fontSize=13;fontColor=default;fontStyle=0;strokeOpacity=100;strokeWidth=1.5;rounded=1;arcSize=12;edgeStyle=orthogonalEdgeStyle;startArrow=none;endArrow=block;endFill=1;exitX=0.5;exitY=0.999;exitPerimeter=0;entryX=0.5;entryY=-0.001;entryPerimeter=0;align=center;" parent="WIyWlLk6GJQsqaUBKTNV-1" source="-EuLFVU4yD4jIDWXe8yd-9" target="-EuLFVU4yD4jIDWXe8yd-12" edge="1">
            <mxGeometry width="100" height="100" relative="1" as="geometry">
              <Array as="points" />
            </mxGeometry>
          </mxCell>
        </UserObject>
        <mxCell id="-EuLFVU4yD4jIDWXe8yd-11" value="No" style="text;html=1;resizable=0;labelBackgroundColor=default;align=center;verticalAlign=middle;fontStyle=0;fontColor=default;fontSize=13;" parent="-EuLFVU4yD4jIDWXe8yd-10" vertex="1">
          <mxGeometry relative="1" as="geometry" />
        </mxCell>
        <UserObject label="Head == head-&amp;gt;next" lucidchartObjectId="k9TjyNI7_4Cw" id="-EuLFVU4yD4jIDWXe8yd-12">
          <mxCell style="html=1;overflow=block;blockSpacing=1;whiteSpace=wrap;rhombus;fontSize=16.7;fontColor=default;fontStyle=0;spacing=3.8;strokeOpacity=100;rounded=1;absoluteArcSize=1;arcSize=9;strokeWidth=2.3;align=center;" parent="WIyWlLk6GJQsqaUBKTNV-1" vertex="1">
            <mxGeometry x="555" y="645" width="210" height="105" as="geometry" />
          </mxCell>
        </UserObject>
        <UserObject label="" lucidchartObjectId="A-TjABVrmWil" id="-EuLFVU4yD4jIDWXe8yd-13">
          <mxCell style="html=1;jettySize=18;whiteSpace=wrap;fontSize=13;fontColor=default;fontStyle=0;strokeOpacity=100;strokeWidth=1.5;rounded=1;arcSize=12;edgeStyle=orthogonalEdgeStyle;startArrow=none;endArrow=block;endFill=1;exitX=0.009;exitY=0.5;exitPerimeter=0;entryX=1.011;entryY=0.5;entryPerimeter=0;align=center;" parent="WIyWlLk6GJQsqaUBKTNV-1" source="-EuLFVU4yD4jIDWXe8yd-9" target="-EuLFVU4yD4jIDWXe8yd-15" edge="1">
            <mxGeometry width="100" height="100" relative="1" as="geometry">
              <Array as="points" />
            </mxGeometry>
          </mxCell>
        </UserObject>
        <mxCell id="-EuLFVU4yD4jIDWXe8yd-14" value="Yes" style="text;html=1;resizable=0;labelBackgroundColor=default;align=center;verticalAlign=middle;fontStyle=0;fontColor=default;fontSize=13;" parent="-EuLFVU4yD4jIDWXe8yd-13" vertex="1">
          <mxGeometry relative="1" as="geometry" />
        </mxCell>
        <UserObject label="Return 0" lucidchartObjectId="eoUjwzLETwix" id="-EuLFVU4yD4jIDWXe8yd-15">
          <mxCell style="html=1;overflow=block;blockSpacing=1;whiteSpace=wrap;rounded=1;arcSize=50;fontSize=16.7;fontColor=default;fontStyle=0;spacing=3.8;strokeOpacity=100;strokeWidth=2.3;align=center;" parent="WIyWlLk6GJQsqaUBKTNV-1" vertex="1">
            <mxGeometry x="360" y="495" width="99" height="60" as="geometry" />
          </mxCell>
        </UserObject>
        <UserObject label="" lucidchartObjectId="gqUjU.lbUIT7" id="-EuLFVU4yD4jIDWXe8yd-16">
          <mxCell style="html=1;jettySize=18;whiteSpace=wrap;fontSize=13;fontColor=default;fontStyle=0;strokeOpacity=100;strokeWidth=1.5;rounded=1;arcSize=12;edgeStyle=orthogonalEdgeStyle;startArrow=none;endArrow=block;endFill=1;exitX=0.5;exitY=1.001;exitPerimeter=0;align=center;" parent="WIyWlLk6GJQsqaUBKTNV-1" source="-EuLFVU4yD4jIDWXe8yd-12" edge="1">
            <mxGeometry width="100" height="100" relative="1" as="geometry">
              <Array as="points" />
              <mxPoint x="660" y="855" as="targetPoint" />
            </mxGeometry>
          </mxCell>
        </UserObject>
        <mxCell id="-EuLFVU4yD4jIDWXe8yd-17" value="No" style="text;html=1;resizable=0;labelBackgroundColor=default;align=center;verticalAlign=middle;fontStyle=0;fontColor=default;fontSize=13;" parent="-EuLFVU4yD4jIDWXe8yd-16" vertex="1">
          <mxGeometry relative="1" as="geometry" />
        </mxCell>
        <UserObject label="" lucidchartObjectId="CqUj7jYGGl0Z" id="-EuLFVU4yD4jIDWXe8yd-18">
          <mxCell style="html=1;jettySize=18;whiteSpace=wrap;fontSize=13;fontColor=default;fontStyle=0;strokeOpacity=100;strokeWidth=1.5;rounded=1;arcSize=12;edgeStyle=orthogonalEdgeStyle;startArrow=none;endArrow=block;endFill=1;exitX=0.008;exitY=0.5;exitPerimeter=0;entryX=1.009;entryY=0.5;entryPerimeter=0;align=center;" parent="WIyWlLk6GJQsqaUBKTNV-1" source="-EuLFVU4yD4jIDWXe8yd-12" target="-EuLFVU4yD4jIDWXe8yd-20" edge="1">
            <mxGeometry width="100" height="100" relative="1" as="geometry">
              <Array as="points" />
            </mxGeometry>
          </mxCell>
        </UserObject>
        <mxCell id="-EuLFVU4yD4jIDWXe8yd-19" value="Yes" style="text;html=1;resizable=0;labelBackgroundColor=default;align=center;verticalAlign=middle;fontStyle=0;fontColor=default;fontSize=13;" parent="-EuLFVU4yD4jIDWXe8yd-18" vertex="1">
          <mxGeometry relative="1" as="geometry" />
        </mxCell>
        <UserObject label="Free head" lucidchartObjectId="FqUjgOdDvxsP" id="-EuLFVU4yD4jIDWXe8yd-20">
          <mxCell style="html=1;overflow=block;blockSpacing=1;whiteSpace=wrap;fontSize=16.7;fontColor=default;fontStyle=0;spacing=9;strokeOpacity=100;rounded=1;absoluteArcSize=1;arcSize=9;strokeWidth=2.3;align=center;" parent="WIyWlLk6GJQsqaUBKTNV-1" vertex="1">
            <mxGeometry x="375" y="653" width="120" height="90" as="geometry" />
          </mxCell>
        </UserObject>
        <UserObject label="" lucidchartObjectId="ZqUjroHSbfZT" id="-EuLFVU4yD4jIDWXe8yd-21">
          <mxCell style="html=1;jettySize=18;whiteSpace=wrap;fontSize=13;strokeOpacity=100;strokeWidth=1.5;rounded=1;arcSize=12;edgeStyle=orthogonalEdgeStyle;startArrow=none;endArrow=block;endFill=1;exitX=-0.009;exitY=0.5;exitPerimeter=0;entryX=1.009;entryY=0.5;entryPerimeter=0;fontStyle=0;align=center;" parent="WIyWlLk6GJQsqaUBKTNV-1" source="-EuLFVU4yD4jIDWXe8yd-20" target="-EuLFVU4yD4jIDWXe8yd-22" edge="1">
            <mxGeometry width="100" height="100" relative="1" as="geometry">
              <Array as="points" />
            </mxGeometry>
          </mxCell>
        </UserObject>
        <UserObject label="Count++" lucidchartObjectId="PrUjx2eA~Qg_" id="-EuLFVU4yD4jIDWXe8yd-22">
          <mxCell style="html=1;overflow=block;blockSpacing=1;whiteSpace=wrap;fontSize=16.7;fontColor=default;fontStyle=0;spacing=9;strokeOpacity=100;rounded=1;absoluteArcSize=1;arcSize=9;strokeWidth=2.3;align=center;" parent="WIyWlLk6GJQsqaUBKTNV-1" vertex="1">
            <mxGeometry x="60" y="653" width="120" height="90" as="geometry" />
          </mxCell>
        </UserObject>
        <UserObject label="" lucidchartObjectId="5rUjoiAFmM_X" id="-EuLFVU4yD4jIDWXe8yd-23">
          <mxCell style="html=1;jettySize=18;whiteSpace=wrap;fontSize=13;strokeOpacity=100;strokeWidth=1.5;rounded=1;arcSize=12;edgeStyle=orthogonalEdgeStyle;startArrow=none;endArrow=block;endFill=1;exitX=-0.009;exitY=0.5;exitPerimeter=0;entryX=1.009;entryY=0.5;entryPerimeter=0;fontStyle=0;align=center;" parent="WIyWlLk6GJQsqaUBKTNV-1" source="-EuLFVU4yD4jIDWXe8yd-22" target="-EuLFVU4yD4jIDWXe8yd-24" edge="1">
            <mxGeometry width="100" height="100" relative="1" as="geometry">
              <Array as="points" />
            </mxGeometry>
          </mxCell>
        </UserObject>
        <UserObject label="Return count " lucidchartObjectId="6rUjozvJ10LH" id="-EuLFVU4yD4jIDWXe8yd-24">
          <mxCell style="html=1;overflow=block;blockSpacing=1;whiteSpace=wrap;rounded=1;arcSize=50;fontSize=16.7;fontColor=default;fontStyle=0;spacing=3.8;strokeOpacity=100;strokeWidth=2.3;align=center;" parent="WIyWlLk6GJQsqaUBKTNV-1" vertex="1">
            <mxGeometry x="-120" y="668" width="120" height="60" as="geometry" />
          </mxCell>
        </UserObject>
        <UserObject label="Preparation" lucidchartObjectId="fyUj9ihtHZp0" id="-EuLFVU4yD4jIDWXe8yd-25">
          <mxCell style="html=1;overflow=block;blockSpacing=1;whiteSpace=wrap;shape=hexagon;perimeter=hexagonPerimeter2;fontSize=16.7;fontColor=default;fontStyle=0;spacing=3.8;strokeOpacity=100;rounded=1;absoluteArcSize=1;arcSize=9;strokeWidth=2.3;align=center;" parent="WIyWlLk6GJQsqaUBKTNV-1" vertex="1">
            <mxGeometry x="600" y="120" width="120" height="90" as="geometry" />
          </mxCell>
        </UserObject>
        <UserObject label="Free_listint_safe" lucidchartObjectId="lyUj0HL4_M2s" id="-EuLFVU4yD4jIDWXe8yd-26">
          <mxCell style="html=1;overflow=block;blockSpacing=1;whiteSpace=wrap;shape=process;fontSize=16.7;fontColor=default;fontStyle=0;spacing=3.8;strokeOpacity=100;rounded=1;absoluteArcSize=1;arcSize=9;strokeWidth=2.3;align=center;" parent="WIyWlLk6GJQsqaUBKTNV-1" vertex="1">
            <mxGeometry x="563" y="17" width="195" height="59" as="geometry" />
          </mxCell>
        </UserObject>
        <UserObject label="" lucidchartObjectId="GzUjXqjGhj6L" id="-EuLFVU4yD4jIDWXe8yd-27">
          <mxCell style="html=1;jettySize=18;whiteSpace=wrap;fontSize=13;strokeOpacity=100;strokeWidth=1.5;rounded=1;arcSize=12;edgeStyle=orthogonalEdgeStyle;startArrow=none;endArrow=block;endFill=1;exitX=0.5;exitY=1.019;exitPerimeter=0;entryX=0.5;entryY=-0.012;entryPerimeter=0;fontStyle=0;align=center;" parent="WIyWlLk6GJQsqaUBKTNV-1" source="-EuLFVU4yD4jIDWXe8yd-26" target="-EuLFVU4yD4jIDWXe8yd-25" edge="1">
            <mxGeometry width="100" height="100" relative="1" as="geometry">
              <Array as="points" />
            </mxGeometry>
          </mxCell>
        </UserObject>
        <UserObject label="" lucidchartObjectId="KAUjZjv.IRIq" id="-EuLFVU4yD4jIDWXe8yd-28">
          <mxCell style="html=1;jettySize=18;whiteSpace=wrap;fontSize=13;strokeOpacity=100;strokeWidth=1.5;rounded=1;arcSize=12;edgeStyle=orthogonalEdgeStyle;startArrow=none;endArrow=block;endFill=1;exitX=-0.009;exitY=0.5;exitPerimeter=0;entryX=1.009;entryY=0.5;entryPerimeter=0;fontStyle=0;align=center;" parent="WIyWlLk6GJQsqaUBKTNV-1" source="-EuLFVU4yD4jIDWXe8yd-20" target="-EuLFVU4yD4jIDWXe8yd-29" edge="1">
            <mxGeometry width="100" height="100" relative="1" as="geometry">
              <Array as="points" />
            </mxGeometry>
          </mxCell>
        </UserObject>
        <UserObject label="Set&#xa;head = NULL" lucidchartObjectId="OAUjvojBsVKb" id="-EuLFVU4yD4jIDWXe8yd-29">
          <mxCell style="html=1;overflow=block;blockSpacing=1;whiteSpace=wrap;fontSize=16.7;fontColor=default;fontStyle=0;spacing=9;strokeOpacity=100;rounded=1;absoluteArcSize=1;arcSize=9;strokeWidth=2.3;align=center;" parent="WIyWlLk6GJQsqaUBKTNV-1" vertex="1">
            <mxGeometry x="218" y="653" width="120" height="90" as="geometry" />
          </mxCell>
        </UserObject>
        <UserObject label="n_node = head" lucidchartObjectId="VEUjYc1vSFdw" id="-EuLFVU4yD4jIDWXe8yd-30">
          <mxCell style="html=1;overflow=block;blockSpacing=1;whiteSpace=wrap;fontSize=16.7;fontColor=default;fontStyle=0;spacing=9;strokeOpacity=100;rounded=1;absoluteArcSize=1;arcSize=9;strokeWidth=2.3;align=center;" parent="WIyWlLk6GJQsqaUBKTNV-1" vertex="1">
            <mxGeometry x="593" y="855" width="135" height="90" as="geometry" />
          </mxCell>
        </UserObject>
        <UserObject label="" lucidchartObjectId="JUUjhVC8.aRA" id="-EuLFVU4yD4jIDWXe8yd-31">
          <mxCell style="html=1;jettySize=18;whiteSpace=wrap;fontSize=13;strokeOpacity=100;strokeWidth=1.5;rounded=1;arcSize=12;edgeStyle=orthogonalEdgeStyle;startArrow=none;endArrow=block;endFill=1;exitX=0.5;exitY=1.012;exitPerimeter=0;entryX=0.5;entryY=0.001;entryPerimeter=0;fontStyle=0;align=center;" parent="WIyWlLk6GJQsqaUBKTNV-1" source="-EuLFVU4yD4jIDWXe8yd-30" target="-EuLFVU4yD4jIDWXe8yd-32" edge="1">
            <mxGeometry width="100" height="100" relative="1" as="geometry">
              <Array as="points" />
            </mxGeometry>
          </mxCell>
        </UserObject>
        <UserObject label="While &#xa;n_node !=  NULL" lucidchartObjectId="LUUjSOhoHL6q" id="-EuLFVU4yD4jIDWXe8yd-32">
          <mxCell style="html=1;overflow=block;blockSpacing=1;whiteSpace=wrap;rhombus;fontSize=16.7;fontColor=default;fontStyle=0;spacing=3.8;strokeOpacity=100;rounded=1;absoluteArcSize=1;arcSize=9;strokeWidth=2.3;align=center;" parent="WIyWlLk6GJQsqaUBKTNV-1" vertex="1">
            <mxGeometry x="553" y="1125" width="214" height="135" as="geometry" />
          </mxCell>
        </UserObject>
        <UserObject label="" lucidchartObjectId="68UjEswZqylS" id="-EuLFVU4yD4jIDWXe8yd-33">
          <mxCell style="html=1;jettySize=18;whiteSpace=wrap;fontSize=13;fontColor=default;fontStyle=0;strokeOpacity=100;strokeWidth=1.5;rounded=1;arcSize=12;edgeStyle=orthogonalEdgeStyle;startArrow=none;endArrow=block;endFill=1;exitX=0.994;exitY=0.5;exitPerimeter=0;entryX=-0.007;entryY=0.5;entryPerimeter=0;align=center;" parent="WIyWlLk6GJQsqaUBKTNV-1" source="-EuLFVU4yD4jIDWXe8yd-32" target="-EuLFVU4yD4jIDWXe8yd-35" edge="1">
            <mxGeometry width="100" height="100" relative="1" as="geometry">
              <Array as="points" />
            </mxGeometry>
          </mxCell>
        </UserObject>
        <mxCell id="-EuLFVU4yD4jIDWXe8yd-34" value="Yes" style="text;html=1;resizable=0;labelBackgroundColor=default;align=center;verticalAlign=middle;fontStyle=0;fontColor=default;fontSize=13;" parent="-EuLFVU4yD4jIDWXe8yd-33" vertex="1">
          <mxGeometry relative="1" as="geometry" />
        </mxCell>
        <UserObject label="Set&#xa;t_node = head" lucidchartObjectId=".8UjOOrbikr~" id="-EuLFVU4yD4jIDWXe8yd-35">
          <mxCell style="html=1;overflow=block;blockSpacing=1;whiteSpace=wrap;fontSize=16.7;fontColor=default;fontStyle=0;spacing=9;strokeOpacity=100;rounded=1;absoluteArcSize=1;arcSize=9;strokeWidth=2.3;align=center;" parent="WIyWlLk6GJQsqaUBKTNV-1" vertex="1">
            <mxGeometry x="840" y="960" width="150" height="90" as="geometry" />
          </mxCell>
        </UserObject>
        <UserObject label="" lucidchartObjectId="7.UjK-sWPqGj" id="-EuLFVU4yD4jIDWXe8yd-36">
          <mxCell style="html=1;jettySize=18;whiteSpace=wrap;fontSize=13;strokeOpacity=100;strokeWidth=1.5;rounded=1;arcSize=12;edgeStyle=orthogonalEdgeStyle;startArrow=none;endArrow=block;endFill=1;exitX=1.007;exitY=0.5;exitPerimeter=0;entryX=0.463;entryY=0.021;entryPerimeter=0;fontStyle=0;align=center;" parent="WIyWlLk6GJQsqaUBKTNV-1" source="-EuLFVU4yD4jIDWXe8yd-35" target="-EuLFVU4yD4jIDWXe8yd-37" edge="1">
            <mxGeometry width="100" height="100" relative="1" as="geometry">
              <Array as="points">
                <mxPoint x="991" y="1010" />
                <mxPoint x="1030" y="1010" />
                <mxPoint x="1030" y="1055" />
              </Array>
            </mxGeometry>
          </mxCell>
        </UserObject>
        <UserObject label="While&#xa;t_node" lucidchartObjectId="bcVjLbV3sLRl" id="-EuLFVU4yD4jIDWXe8yd-37">
          <mxCell style="html=1;overflow=block;blockSpacing=1;whiteSpace=wrap;rhombus;fontSize=16.7;fontColor=default;fontStyle=0;spacing=3.8;strokeOpacity=100;rounded=1;absoluteArcSize=1;arcSize=9;strokeWidth=2.3;align=center;" parent="WIyWlLk6GJQsqaUBKTNV-1" vertex="1">
            <mxGeometry x="975" y="1073" width="120" height="90" as="geometry" />
          </mxCell>
        </UserObject>
        <UserObject label="" lucidchartObjectId="EiVjGUEaPr1p" id="-EuLFVU4yD4jIDWXe8yd-38">
          <mxCell style="html=1;jettySize=18;whiteSpace=wrap;fontSize=13;fontColor=default;fontStyle=0;strokeOpacity=100;strokeWidth=1.5;rounded=1;arcSize=12;edgeStyle=orthogonalEdgeStyle;startArrow=none;endArrow=block;endFill=1;exitX=0.009;exitY=0.5;exitPerimeter=0;entryX=0.5;entryY=0.999;entryPerimeter=0;align=center;" parent="WIyWlLk6GJQsqaUBKTNV-1" source="-EuLFVU4yD4jIDWXe8yd-37" target="-EuLFVU4yD4jIDWXe8yd-32" edge="1">
            <mxGeometry width="100" height="100" relative="1" as="geometry">
              <Array as="points" />
            </mxGeometry>
          </mxCell>
        </UserObject>
        <mxCell id="-EuLFVU4yD4jIDWXe8yd-39" value="No" style="text;html=1;resizable=0;labelBackgroundColor=default;align=center;verticalAlign=middle;fontStyle=0;fontColor=default;fontSize=13;" parent="-EuLFVU4yD4jIDWXe8yd-38" vertex="1">
          <mxGeometry relative="1" as="geometry" />
        </mxCell>
        <UserObject label="" lucidchartObjectId="ajVjOMdyZyzg" id="-EuLFVU4yD4jIDWXe8yd-40">
          <mxCell style="html=1;jettySize=18;whiteSpace=wrap;fontSize=13;fontColor=default;fontStyle=0;strokeOpacity=100;strokeWidth=1.5;rounded=1;arcSize=12;edgeStyle=orthogonalEdgeStyle;startArrow=none;endArrow=block;endFill=1;exitX=0.991;exitY=0.5;exitPerimeter=0;entryX=0.006;entryY=0.5;entryPerimeter=0;align=center;" parent="WIyWlLk6GJQsqaUBKTNV-1" source="-EuLFVU4yD4jIDWXe8yd-37" target="-EuLFVU4yD4jIDWXe8yd-42" edge="1">
            <mxGeometry width="100" height="100" relative="1" as="geometry">
              <Array as="points" />
            </mxGeometry>
          </mxCell>
        </UserObject>
        <mxCell id="-EuLFVU4yD4jIDWXe8yd-41" value="Yes" style="text;html=1;resizable=0;labelBackgroundColor=default;align=center;verticalAlign=middle;fontStyle=0;fontColor=default;fontSize=13;" parent="-EuLFVU4yD4jIDWXe8yd-40" vertex="1">
          <mxGeometry relative="1" as="geometry" />
        </mxCell>
        <UserObject label="If&#xa;t_node == n_node-&amp;gt;next" lucidchartObjectId="GlVj2SEtHm9M" id="-EuLFVU4yD4jIDWXe8yd-42">
          <mxCell style="html=1;overflow=block;blockSpacing=1;whiteSpace=wrap;rhombus;fontSize=16.7;fontColor=default;fontStyle=0;spacing=3.8;strokeOpacity=100;rounded=1;absoluteArcSize=1;arcSize=9;strokeWidth=2.3;align=center;" parent="WIyWlLk6GJQsqaUBKTNV-1" vertex="1">
            <mxGeometry x="1215" y="1046" width="255" height="143" as="geometry" />
          </mxCell>
        </UserObject>
        <UserObject label="" lucidchartObjectId="JpVjY_qIxL-8" id="-EuLFVU4yD4jIDWXe8yd-43">
          <mxCell style="html=1;jettySize=18;whiteSpace=wrap;fontSize=13;fontColor=default;fontStyle=0;strokeOpacity=100;strokeWidth=1.5;rounded=1;arcSize=12;edgeStyle=orthogonalEdgeStyle;startArrow=none;endArrow=block;endFill=1;exitX=0.5;exitY=0;exitPerimeter=0;entryX=0.5;entryY=1.014;entryPerimeter=0;align=center;" parent="WIyWlLk6GJQsqaUBKTNV-1" source="-EuLFVU4yD4jIDWXe8yd-42" target="-EuLFVU4yD4jIDWXe8yd-45" edge="1">
            <mxGeometry width="100" height="100" relative="1" as="geometry">
              <Array as="points" />
            </mxGeometry>
          </mxCell>
        </UserObject>
        <mxCell id="-EuLFVU4yD4jIDWXe8yd-44" value="Yes" style="text;html=1;resizable=0;labelBackgroundColor=default;align=center;verticalAlign=middle;fontStyle=0;fontColor=default;fontSize=13;" parent="-EuLFVU4yD4jIDWXe8yd-43" vertex="1">
          <mxGeometry relative="1" as="geometry" />
        </mxCell>
        <UserObject label="Stop_flag = 1&#xa;n_node-&amp;gt;next = NULL " lucidchartObjectId="NpVj_N7j~Zg8" id="-EuLFVU4yD4jIDWXe8yd-45">
          <mxCell style="html=1;overflow=block;blockSpacing=1;whiteSpace=wrap;fontSize=16.7;fontColor=default;fontStyle=0;spacing=9;strokeOpacity=100;rounded=1;absoluteArcSize=1;arcSize=9;strokeWidth=2.3;align=center;" parent="WIyWlLk6GJQsqaUBKTNV-1" vertex="1">
            <mxGeometry x="1249" y="870" width="188" height="83" as="geometry" />
          </mxCell>
        </UserObject>
        <UserObject label="" lucidchartObjectId="lsVjZbHinWfV" id="-EuLFVU4yD4jIDWXe8yd-46">
          <mxCell style="html=1;jettySize=18;whiteSpace=wrap;fontSize=13;strokeOpacity=100;strokeWidth=1.5;rounded=1;arcSize=12;edgeStyle=orthogonalEdgeStyle;startArrow=none;endArrow=block;endFill=1;exitX=1.006;exitY=0.637;exitPerimeter=0;entryX=-0.009;entryY=0.5;entryPerimeter=0;fontStyle=0;align=center;" parent="WIyWlLk6GJQsqaUBKTNV-1" source="-EuLFVU4yD4jIDWXe8yd-45" target="-EuLFVU4yD4jIDWXe8yd-47" edge="1">
            <mxGeometry width="100" height="100" relative="1" as="geometry">
              <Array as="points" />
            </mxGeometry>
          </mxCell>
        </UserObject>
        <UserObject label="Break;" lucidchartObjectId="nsVj3WZGSmiO" id="-EuLFVU4yD4jIDWXe8yd-47">
          <mxCell style="html=1;overflow=block;blockSpacing=1;whiteSpace=wrap;rounded=1;arcSize=50;fontSize=16.7;fontColor=default;fontStyle=0;spacing=3.8;strokeOpacity=100;strokeWidth=2.3;align=center;" parent="WIyWlLk6GJQsqaUBKTNV-1" vertex="1">
            <mxGeometry x="1560" y="893" width="120" height="60" as="geometry" />
          </mxCell>
        </UserObject>
        <UserObject label="" lucidchartObjectId="UsVj_B--O2z8" id="-EuLFVU4yD4jIDWXe8yd-48">
          <mxCell style="html=1;jettySize=18;whiteSpace=wrap;fontSize=13;strokeOpacity=100;strokeWidth=1.5;rounded=1;arcSize=12;edgeStyle=orthogonalEdgeStyle;startArrow=none;endArrow=block;endFill=1;exitX=1.009;exitY=0.5;exitPerimeter=0;fontStyle=0;align=center;" parent="WIyWlLk6GJQsqaUBKTNV-1" source="-EuLFVU4yD4jIDWXe8yd-47" edge="1">
            <mxGeometry width="100" height="100" relative="1" as="geometry">
              <Array as="points">
                <mxPoint x="1850" y="923" />
                <mxPoint x="1850" y="1270" />
              </Array>
              <mxPoint x="880" y="1270" as="targetPoint" />
            </mxGeometry>
          </mxCell>
        </UserObject>
        <UserObject label="" lucidchartObjectId="-xVjJKSK1NIU" id="-EuLFVU4yD4jIDWXe8yd-49">
          <mxCell style="html=1;jettySize=18;whiteSpace=wrap;fontSize=13;fontColor=default;fontStyle=0;strokeOpacity=100;strokeWidth=1.5;rounded=1;arcSize=12;edgeStyle=orthogonalEdgeStyle;startArrow=none;endArrow=block;endFill=1;exitX=0.994;exitY=0.5;exitPerimeter=0;entryX=-0.005;entryY=0.5;entryPerimeter=0;align=center;" parent="WIyWlLk6GJQsqaUBKTNV-1" source="-EuLFVU4yD4jIDWXe8yd-42" target="-EuLFVU4yD4jIDWXe8yd-51" edge="1">
            <mxGeometry width="100" height="100" relative="1" as="geometry">
              <Array as="points" />
            </mxGeometry>
          </mxCell>
        </UserObject>
        <mxCell id="-EuLFVU4yD4jIDWXe8yd-50" value="No" style="text;html=1;resizable=0;labelBackgroundColor=default;align=center;verticalAlign=middle;fontStyle=0;fontColor=default;fontSize=13;" parent="-EuLFVU4yD4jIDWXe8yd-49" vertex="1">
          <mxGeometry relative="1" as="geometry" />
        </mxCell>
        <UserObject label="t_node = t_node-&amp;gt;next" lucidchartObjectId=".xVjM5buvRTd" id="-EuLFVU4yD4jIDWXe8yd-51">
          <mxCell style="html=1;overflow=block;blockSpacing=1;whiteSpace=wrap;fontSize=16.7;fontColor=default;fontStyle=0;spacing=9;strokeOpacity=100;rounded=1;absoluteArcSize=1;arcSize=9;strokeWidth=2.3;align=center;" parent="WIyWlLk6GJQsqaUBKTNV-1" vertex="1">
            <mxGeometry x="1590" y="1073" width="225" height="90" as="geometry" />
          </mxCell>
        </UserObject>
        <UserObject label="" lucidchartObjectId="fAVjB5FzhYUF" id="-EuLFVU4yD4jIDWXe8yd-52">
          <mxCell style="html=1;jettySize=18;whiteSpace=wrap;fontSize=13;strokeOpacity=100;strokeWidth=1.5;rounded=1;arcSize=12;edgeStyle=orthogonalEdgeStyle;startArrow=none;endArrow=block;endFill=1;exitX=0.5;exitY=1.012;exitPerimeter=0;entryX=0.5;entryY=0.996;entryPerimeter=0;fontStyle=0;align=center;" parent="WIyWlLk6GJQsqaUBKTNV-1" source="-EuLFVU4yD4jIDWXe8yd-51" target="-EuLFVU4yD4jIDWXe8yd-37" edge="1">
            <mxGeometry width="100" height="100" relative="1" as="geometry">
              <Array as="points">
                <mxPoint x="1703" y="1230" />
                <mxPoint x="1035" y="1230" />
              </Array>
            </mxGeometry>
          </mxCell>
        </UserObject>
        <UserObject label="" lucidchartObjectId="lBVjJK7SQL0e" id="-EuLFVU4yD4jIDWXe8yd-53">
          <mxCell style="html=1;jettySize=18;whiteSpace=wrap;fontSize=13;fontColor=default;fontStyle=0;strokeOpacity=100;strokeWidth=1.5;rounded=1;arcSize=12;edgeStyle=orthogonalEdgeStyle;startArrow=none;endArrow=block;endFill=1;exitX=0.006;exitY=0.5;exitPerimeter=0;align=center;" parent="WIyWlLk6GJQsqaUBKTNV-1" source="-EuLFVU4yD4jIDWXe8yd-32" edge="1">
            <mxGeometry width="100" height="100" relative="1" as="geometry">
              <Array as="points" />
              <mxPoint x="510" y="1365" as="targetPoint" />
            </mxGeometry>
          </mxCell>
        </UserObject>
        <mxCell id="-EuLFVU4yD4jIDWXe8yd-54" value="No" style="text;html=1;resizable=0;labelBackgroundColor=default;align=center;verticalAlign=middle;fontStyle=0;fontColor=default;fontSize=13;" parent="-EuLFVU4yD4jIDWXe8yd-53" vertex="1">
          <mxGeometry relative="1" as="geometry" />
        </mxCell>
      </root>
    </mxGraphModel>
  </diagram>
</mxfile>
